<svg width="18" height="13" viewBox="0 0 18 13" fill="none" xmlns="http://www.w3.org/2000/svg">
<path fill-rule="evenodd" clip-rule="evenodd" d="M16.7781 1.5H1.22255C0.915723 1.5 0.666992 1.25127 0.666992 0.944441C0.666992 0.637616 0.915723 0.388885 1.22255 0.388885H16.7781C17.0849 0.388885 17.3337 0.637616 17.3337 0.944441C17.3337 1.25127 17.0849 1.5 16.7781 1.5ZM16.7781 7.05555H1.22255C0.915723 7.05555 0.666992 6.80682 0.666992 6.5C0.666992 6.19317 0.915723 5.94444 1.22255 5.94444H16.7781C17.0849 5.94444 17.3337 6.19317 17.3337 6.5C17.3337 6.80682 17.0849 7.05555 16.7781 7.05555ZM1.22255 12.6111H16.7781C17.0849 12.6111 17.3337 12.3624 17.3337 12.0556C17.3337 11.7487 17.0849 11.5 16.7781 11.5H1.22255C0.915723 11.5 0.666992 11.7487 0.666992 12.0556C0.666992 12.3624 0.915723 12.6111 1.22255 12.6111Z" fill="#262626"/>
</svg>
