<svg width="18" height="17" viewBox="0 0 18 17" fill="none" xmlns="http://www.w3.org/2000/svg">
<path d="M16.917 2.33334L15.1115 2.33334V3.44445L16.7781 3.44445L16.7781 15.6667L1.22258 15.6667L1.22258 3.44445L2.88925 3.44445V2.33334L1.08369 2.33334C0.953825 2.33551 0.825656 2.36324 0.706508 2.41495C0.58736 2.46666 0.479566 2.54134 0.389283 2.63472C0.299 2.7281 0.227997 2.83835 0.18033 2.95917C0.132662 3.07999 0.109264 3.20902 0.111471 3.33889L0.111471 15.7722C0.109264 15.9021 0.132662 16.0311 0.18033 16.1519C0.227997 16.2728 0.299 16.383 0.389283 16.4764C0.479566 16.5698 0.58736 16.6445 0.706508 16.6962C0.825656 16.7479 0.953825 16.7756 1.08369 16.7778L16.917 16.7778C17.0469 16.7756 17.1751 16.7479 17.2942 16.6962C17.4134 16.6445 17.5212 16.5698 17.6114 16.4764C17.7017 16.383 17.7727 16.2728 17.8204 16.1519C17.8681 16.0311 17.8915 15.9021 17.8892 15.7722L17.8892 3.33889C17.8915 3.20902 17.8681 3.07999 17.8204 2.95917C17.7727 2.83835 17.7017 2.7281 17.6114 2.63472C17.5212 2.54134 17.4134 2.46666 17.2942 2.41495C17.1751 2.36324 17.0469 2.33551 16.917 2.33334Z" fill="#262626"/>
<path d="M4.55591 6.77778H3.4448L3.4448 7.88889H4.55591V6.77778Z" fill="#262626"/>
<path d="M7.88924 6.77778H6.77813V7.88889H7.88924V6.77778Z" fill="#262626"/>
<path d="M11.2226 6.77778H10.1115V7.88889H11.2226V6.77778Z" fill="#262626"/>
<path d="M14.5559 6.77778L13.4448 6.77778V7.88889L14.5559 7.88889V6.77778Z" fill="#262626"/>
<path d="M4.55591 9.55556H3.4448L3.4448 10.6667H4.55591V9.55556Z" fill="#262626"/>
<path d="M7.88924 9.55556H6.77813V10.6667H7.88924V9.55556Z" fill="#262626"/>
<path d="M11.2226 9.55556H10.1115V10.6667H11.2226V9.55556Z" fill="#262626"/>
<path d="M14.5559 9.55556H13.4448V10.6667H14.5559V9.55556Z" fill="#262626"/>
<path d="M4.55591 12.3333H3.4448L3.4448 13.4444H4.55591V12.3333Z" fill="#262626"/>
<path d="M7.88924 12.3333H6.77813V13.4444H7.88924V12.3333Z" fill="#262626"/>
<path d="M11.2226 12.3333H10.1115V13.4444H11.2226V12.3333Z" fill="#262626"/>
<path d="M14.5559 12.3333H13.4448V13.4444H14.5559V12.3333Z" fill="#262626"/>
<path d="M4.55591 4.55556C4.70325 4.55556 4.84456 4.49703 4.94875 4.39284C5.05293 4.28865 5.11146 4.14735 5.11146 4L5.11146 0.66667C5.11146 0.519328 5.05293 0.37802 4.94875 0.273833C4.84456 0.169646 4.70325 0.111115 4.55591 0.111115C4.40857 0.111115 4.26726 0.169646 4.16307 0.273833C4.05888 0.37802 4.00035 0.519328 4.00035 0.66667V4C4.00035 4.14735 4.05888 4.28865 4.16307 4.39284C4.26726 4.49703 4.40857 4.55556 4.55591 4.55556Z" fill="#262626"/>
<path d="M13.4448 4.55556C13.5921 4.55556 13.7334 4.49703 13.8376 4.39284C13.9418 4.28865 14.0004 4.14735 14.0004 4V0.66667C14.0004 0.519328 13.9418 0.37802 13.8376 0.273833C13.7334 0.169646 13.5921 0.111115 13.4448 0.111115C13.2975 0.111115 13.1561 0.169646 13.052 0.273833C12.9478 0.37802 12.8892 0.519328 12.8892 0.66667V4C12.8892 4.14735 12.9478 4.28865 13.052 4.39284C13.1561 4.49703 13.2975 4.55556 13.4448 4.55556Z" fill="#262626"/>
<path d="M11.7781 2.33334L6.22258 2.33334L6.22258 3.44445L11.7781 3.44445V2.33334Z" fill="#262626"/>
</svg>
