<svg width="15" height="16" viewBox="0 0 15 16" fill="none" xmlns="http://www.w3.org/2000/svg">
<path fill-rule="evenodd" clip-rule="evenodd" d="M11.6338 1.925L14.0921 4.38333C14.2547 4.54457 14.3465 4.76387 14.3473 4.99288C14.3481 5.2219 14.2578 5.44182 14.0963 5.60416L12.7296 6.97083L9.05042 3.29166L10.4171 1.925C10.7536 1.59023 11.2973 1.59023 11.6338 1.925ZM0.967084 14L1.75875 10.5833L8.33375 4L12.0171 7.675L5.41708 14.25L1.97958 15.0417C1.92001 15.0477 1.85999 15.0477 1.80042 15.0417C1.54149 15.0401 1.29711 14.9217 1.13536 14.7195C0.973609 14.5174 0.911774 14.2529 0.967084 14Z" fill="#262626"/>
</svg>
