<svg width="16" height="15" viewBox="0 0 16 15" fill="none" xmlns="http://www.w3.org/2000/svg">
<path d="M14.6666 6.9445H8.55549V0.833388C8.55549 0.526563 8.30676 0.277832 7.99993 0.277832C7.69311 0.277832 7.44438 0.526563 7.44438 0.833388V6.9445H1.33326C1.02644 6.9445 0.777708 7.19323 0.777708 7.50005C0.772162 7.64614 0.830122 7.78747 0.93664 7.8876C1.04316 7.98772 1.1878 8.03684 1.33326 8.02228H7.44438V14.1667C7.44438 14.4735 7.69311 14.7223 7.99993 14.7223C8.30676 14.7223 8.55549 14.4735 8.55549 14.1667V8.05561H14.6666C14.9734 8.05561 15.2222 7.80688 15.2222 7.50005C15.2222 7.19323 14.9734 6.9445 14.6666 6.9445Z" fill="#262626"/>
</svg>