<svg width="13" height="13" viewBox="0 0 13 13" fill="none" xmlns="http://www.w3.org/2000/svg">
<path fill-rule="evenodd" clip-rule="evenodd" d="M2.82057 3.58334C2.09434 3.58333 1.50432 4.16962 1.49974 4.89584V6.55418L0.666406 7.43751L0.666406 4.89584C0.670996 3.70939 1.63411 2.75 2.82057 2.75001L10.8331 2.75001L9.04974 0.858343C8.94777 0.749675 8.91152 0.594861 8.95465 0.452219C8.99777 0.309576 9.11372 0.200776 9.25881 0.166802C9.40391 0.132828 9.5561 0.178842 9.65807 0.28751L12.3706 3.16668L9.65807 6.04584C9.5561 6.15451 9.40391 6.20053 9.25881 6.16655C9.11372 6.13258 8.99777 6.02378 8.95465 5.88113C8.91152 5.73849 8.94777 5.58368 9.04974 5.47501L10.8331 3.58334L2.82057 3.58334ZM10.1789 9.41668C10.9051 9.41669 11.4952 8.8304 11.4997 8.10418V6.44584L12.3331 5.56251L12.3331 8.10418C12.3285 9.29063 11.3654 10.25 10.1789 10.25L2.16641 10.25L3.94974 12.1417C4.05171 12.2503 4.08796 12.4052 4.04483 12.5478C4.00171 12.6904 3.88576 12.7992 3.74067 12.8332C3.59557 12.8672 3.44338 12.8212 3.34141 12.7125L0.628906 9.83334L3.34141 6.95418C3.44338 6.84551 3.59557 6.79949 3.74067 6.83347C3.88576 6.86744 4.00171 6.97624 4.04483 7.11889C4.08796 7.26153 4.05171 7.41634 3.94974 7.52501L2.16641 9.41668L10.1789 9.41668Z" fill="#262626"/>
</svg>
