<svg width="13" height="15" viewBox="0 0 13 15" fill="none" xmlns="http://www.w3.org/2000/svg">
<path fill-rule="evenodd" clip-rule="evenodd" d="M8.58464 2.08333L11.8055 2.08333C12.0356 2.08333 12.2221 2.26988 12.2221 2.49999C12.2221 2.73011 12.0356 2.91666 11.8055 2.91666L1.08464 2.91666C0.854517 2.91666 0.667969 2.73011 0.667969 2.49999C0.667969 2.26988 0.854517 2.08333 1.08464 2.08333L4.41797 2.08333V1.66666C4.41582 1.2371 4.74055 0.87628 5.16797 0.833328L7.7513 0.833328C8.21154 0.833328 8.58464 1.20642 8.58464 1.66666V2.08333ZM1.5013 12.9167L1.5013 3.74999L11.5013 3.74999L11.5013 12.9167C11.5091 13.244 11.3851 13.5608 11.1571 13.7959C10.9291 14.0309 10.6163 14.1645 10.2888 14.1667L2.69297 14.1667C2.36915 14.159 2.06165 14.023 1.83815 13.7886C1.61465 13.5541 1.49347 13.2405 1.5013 12.9167ZM5.2513 12.0833H4.41797L4.41797 5.83333H5.2513L5.2513 12.0833ZM7.7513 12.0833H8.58464L8.58464 5.83333H7.7513L7.7513 12.0833Z" fill="#D64F52"/>
</svg>
