<svg width="20" height="21" viewBox="0 0 20 21" fill="none" xmlns="http://www.w3.org/2000/svg">
<path fill-rule="evenodd" clip-rule="evenodd" d="M3.3335 10.389C3.3335 14.0709 6.31826 17.0557 10.0002 17.0557C13.6821 17.0557 16.6668 14.0709 16.6668 10.389C16.6668 8.62091 15.9644 6.92521 14.7142 5.67497C13.464 4.42473 11.7683 3.72235 10.0002 3.72235C6.31826 3.72235 3.3335 6.70712 3.3335 10.389ZM14.0168 8.07791C14.3237 8.38473 14.3237 8.88219 14.0168 9.18902L9.13905 14.0612L6.11127 11.0335C5.80445 10.7266 5.80445 10.2292 6.11127 9.92235C6.4181 9.61553 6.91556 9.61553 7.22238 9.92235L9.14461 11.839L12.9057 8.07791C13.2125 7.77108 13.71 7.77108 14.0168 8.07791Z" fill="#4DE060"/>
</svg>
