<svg width="28" height="29" viewBox="0 0 28 29" fill="none" xmlns="http://www.w3.org/2000/svg">
<path fill-rule="evenodd" clip-rule="evenodd" d="M24.5844 19.5856L14.6056 9.60668C15.192 6.95031 14.2351 4.18983 12.1304 2.46632C10.0258 0.742802 7.13079 0.349038 4.64222 1.44779L3.6 1.90668L7.78444 6.09112L5.59111 8.29224L1.40666 4.10779L0.947773 5.14224C-0.157347 7.63084 0.233804 10.5298 1.95897 12.6365C3.68414 14.7432 6.449 15.6983 9.10666 15.1056L19.0856 25.0845C19.3773 25.3766 19.7732 25.5407 20.1861 25.5407C20.599 25.5407 20.9949 25.3766 21.2867 25.0845L24.5844 21.7867C24.8765 21.4949 25.0407 21.099 25.0407 20.6861C25.0407 20.2733 24.8765 19.8773 24.5844 19.5856ZM20.1822 23.9878L9.57333 13.3711L9.13 13.4956C7.41822 13.996 5.57066 13.6596 4.1452 12.5878C2.71974 11.516 1.88346 9.83455 1.88888 8.05112C1.88792 7.66442 1.92702 7.27866 2.00555 6.90001L5.59111 10.4856L9.99333 6.08335L6.40777 2.50557C8.35369 2.09708 10.3711 2.74066 11.721 4.20053C13.0709 5.66039 13.5549 7.72198 12.9956 9.63001L12.8711 10.0733L23.4878 20.69L20.1822 23.9878ZM20.7656 20.2156C20.7656 20.774 20.3129 21.2267 19.7544 21.2267C19.196 21.2267 18.7433 20.774 18.7433 20.2156C18.7433 19.6571 19.196 19.2045 19.7544 19.2045C20.3129 19.2045 20.7656 19.6571 20.7656 20.2156Z" fill="white" fill-opacity="0.85"/>
</svg>
