<svg width="28" height="29" viewBox="0 0 28 29" fill="none" xmlns="http://www.w3.org/2000/svg">
<path fill-rule="evenodd" clip-rule="evenodd" d="M15.299 11.1244L26.2345 22.06C26.5528 22.3838 26.5528 22.9028 26.2345 23.2266L22.7268 26.7344C22.403 27.0526 21.8839 27.0526 21.5601 26.7344L10.6245 15.7989C8.0702 16.5449 5.31507 15.741 3.56276 13.7383C1.81044 11.7357 1.37937 8.89823 2.45787 6.46553L6.63454 10.6111L10.1112 7.13442L5.96565 2.95775C8.39835 1.87925 11.2358 2.31032 13.2385 4.06263C15.2411 5.81495 16.045 8.57008 15.299 11.1244ZM21.0515 23.0303C21.4622 23.448 22.1319 23.4592 22.5564 23.0555C22.7695 22.8529 22.8901 22.5718 22.8901 22.2778C22.8901 21.9837 22.7695 21.7026 22.5564 21.5C22.1319 21.0963 21.4622 21.1075 21.0515 21.5252C20.6407 21.9428 20.6407 22.6127 21.0515 23.0303Z" fill="white"/>
</svg>
