<svg width="26" height="26" viewBox="0 0 26 26" fill="none" xmlns="http://www.w3.org/2000/svg">
<path fill-rule="evenodd" clip-rule="evenodd" d="M24.1141 13.83C24.2609 13.9756 24.4596 14.0568 24.6664 14.0556C24.9789 14.0543 25.2604 13.866 25.3808 13.5775C25.5013 13.2891 25.4374 12.9566 25.2186 12.7334L13.5519 1.06669C13.2486 0.765124 12.7586 0.765124 12.4553 1.06669L0.788587 12.7334C0.524316 13.0419 0.542084 13.5019 0.829371 13.7892C1.11666 14.0765 1.57666 14.0943 1.88525 13.83L12.9997 2.7078L24.1141 13.83ZM3.66637 14.7011L12.9997 5.33669L22.333 14.6467V24.1667C22.333 25.0258 21.6366 25.7222 20.7775 25.7222H15.333V17.9445H10.6664V25.7222H5.22192C4.36281 25.7222 3.66637 25.0258 3.66637 24.1667V14.7011Z" fill="white"/>
</svg>
