<svg width="26" height="25" viewBox="0 0 26 25" fill="none" xmlns="http://www.w3.org/2000/svg">
<path fill-rule="evenodd" clip-rule="evenodd" d="M13.5519 0.281104L25.2186 11.9478L25.2108 11.9555C25.4751 12.2641 25.4573 12.7241 25.17 13.0114C24.8827 13.2987 24.4227 13.3165 24.1141 13.0522L12.9997 1.92999L1.88525 13.0444C1.57666 13.3087 1.11666 13.2909 0.829371 13.0037C0.542084 12.7164 0.524316 12.2564 0.788587 11.9478L12.4553 0.281104C12.7586 -0.0204591 13.2486 -0.0204591 13.5519 0.281104ZM16.8886 23.3889H20.7775V12.3133L22.333 13.8689V23.3889C22.333 24.248 21.6366 24.9444 20.7775 24.9444H15.333V17.1667H10.6664V24.9444H5.22192C4.36281 24.9444 3.66637 24.248 3.66637 23.3889V14.0555L5.22192 12.5V23.3889H9.11081V15.6111H16.8886V23.3889Z" fill="white" fill-opacity="0.85"/>
</svg>
