<svg width="20" height="19" viewBox="0 0 20 19" fill="none" xmlns="http://www.w3.org/2000/svg">
<path fill-rule="evenodd" clip-rule="evenodd" d="M12.0163 1.41112L19.5918 15.3645V15.3878C19.9841 16.1112 19.9663 16.9876 19.545 17.6945C19.1238 18.4014 18.3614 18.8341 17.5385 18.8333H2.38738C1.55748 18.8387 0.787208 18.4028 0.364464 17.6886C-0.0582791 16.9744 -0.0698595 16.0895 0.334051 15.3645L7.91738 1.41112C8.32594 0.660469 9.11219 0.193237 9.96683 0.193237C10.8215 0.193237 11.6077 0.660469 12.0163 1.41112ZM17.5385 17.2545C17.8131 17.2544 18.0673 17.1096 18.2074 16.8733C18.3482 16.6374 18.3541 16.3447 18.2229 16.1033L10.6474 2.15001C10.5116 1.89846 10.2488 1.74166 9.96294 1.74166C9.67709 1.74166 9.41427 1.89846 9.2785 2.15001L1.70294 16.1033C1.57091 16.3447 1.57615 16.6378 1.71673 16.8742C1.85731 17.1106 2.11232 17.2552 2.38738 17.2545H17.5385ZM9.96294 15.5433C10.6073 15.5433 11.1296 15.021 11.1296 14.3767C11.1296 13.7323 10.6073 13.21 9.96294 13.21C9.31861 13.21 8.79627 13.7323 8.79627 14.3767C8.79627 15.021 9.31861 15.5433 9.96294 15.5433ZM11.0129 11.0711C11.0129 11.6295 10.5603 12.0822 10.0018 12.0822C9.73095 12.0823 9.47138 11.9736 9.28131 11.7806C9.09124 11.5876 8.98655 11.3264 8.99072 11.0556V6.3889C8.99072 5.83048 9.44341 5.37779 10.0018 5.37779C10.5603 5.37779 11.0129 5.83048 11.0129 6.3889V11.0711Z" fill="white" fill-opacity="0.85"/>
</svg>
