<svg width="20" height="19" viewBox="0 0 20 19" fill="none" xmlns="http://www.w3.org/2000/svg">
<path fill-rule="evenodd" clip-rule="evenodd" d="M19.5918 15.3645L12.0163 1.41112C11.6077 0.660469 10.8215 0.193237 9.96683 0.193237C9.11219 0.193237 8.32594 0.660469 7.91738 1.41112L0.334051 15.3645C-0.0698595 16.0895 -0.0582791 16.9744 0.364464 17.6886C0.787208 18.4028 1.55748 18.8387 2.38738 18.8333H17.5385C18.3614 18.8341 19.1238 18.4014 19.545 17.6945C19.9663 16.9876 19.9841 16.1112 19.5918 15.3878V15.3645ZM8.80405 5.4089C8.80405 4.76457 9.32639 4.24223 9.97072 4.24223C10.6151 4.24223 11.1374 4.76457 11.1374 5.4089V10.7678C11.1374 11.4121 10.6151 11.9345 9.97072 11.9345C9.32639 11.9345 8.80405 11.4121 8.80405 10.7678V5.4089ZM8.66405 14.5789C8.66405 15.3177 9.263 15.9167 10.0018 15.9167C10.7407 15.9167 11.3396 15.3177 11.3396 14.5789C11.3396 13.8401 10.7407 13.2411 10.0018 13.2411C9.263 13.2411 8.66405 13.8401 8.66405 14.5789Z" fill="white"/>
</svg>
