<svg width="14" height="19" viewBox="0 0 14 19" fill="none" xmlns="http://www.w3.org/2000/svg">
<path fill-rule="evenodd" clip-rule="evenodd" d="M11.4462 7.83326V5.45548C11.4959 2.94781 9.50916 0.871718 7.00174 0.811035C4.49431 0.871718 2.50762 2.94781 2.55729 5.45548V7.83326H0.890625V17.2777C0.890625 17.8913 1.38809 18.3888 2.00174 18.3888H12.0017C12.6154 18.3888 13.1128 17.8913 13.1128 17.2777V7.83326H11.4462ZM7.55729 13.5166V15.0555H6.44618V13.4666C5.88892 13.1799 5.60656 12.5437 5.76772 11.9381C5.92889 11.3325 6.49008 10.9208 7.11615 10.949C7.74222 10.9772 8.26417 11.4376 8.37029 12.0552C8.47641 12.6729 8.13806 13.2811 7.55729 13.5166ZM3.6684 7.83326H10.3351V5.45548C10.3849 3.56135 8.89556 1.98261 7.00174 1.92215C5.10791 1.98261 3.61854 3.56135 3.6684 5.45548V7.83326Z" fill="#262626"/>
</svg>
