<svg width="33" height="25" viewBox="0 0 33 25" fill="none" xmlns="http://www.w3.org/2000/svg">
<path fill-rule="evenodd" clip-rule="evenodd" d="M30.92 1.00001C31.0563 0.98596 31.1937 0.98596 31.33 1.00001L16.84 15.47L2.38999 1.08001C2.56227 1.02968 2.74054 1.00277 2.91999 1.00001H30.92ZM18.25 16.89L32.81 2.39001C32.8815 2.58584 32.922 2.79166 32.93 3.00001V23C32.93 24.1046 32.0346 25 30.93 25H2.92999C1.82542 25 0.929993 24.1046 0.929993 23V3.00001C0.932111 2.83105 0.955632 2.66305 0.999993 2.50001L15.43 16.89C16.2101 17.6655 17.4699 17.6655 18.25 16.89ZM2.90999 23H4.29999L11.59 15.77L10.18 14.36L2.90999 21.57V23ZM30.91 23H29.51L22.22 15.77L23.63 14.36L30.9 21.57L30.91 23Z" fill="#737373"/>
</svg>
