<svg width="24" height="19" viewBox="0 0 24 19" fill="none" xmlns="http://www.w3.org/2000/svg">
<path fill-rule="evenodd" clip-rule="evenodd" d="M22.8876 2.50001H1.10981C0.680254 2.50001 0.332031 2.15179 0.332031 1.72224C0.332031 1.29268 0.680254 0.944458 1.10981 0.944458H22.8876C23.3171 0.944458 23.6654 1.29268 23.6654 1.72224C23.6654 2.15179 23.3171 2.50001 22.8876 2.50001ZM22.8876 10.2778H1.10981C0.680254 10.2778 0.332031 9.92957 0.332031 9.50001C0.332031 9.07046 0.680254 8.72224 1.10981 8.72224H22.8876C23.3171 8.72224 23.6654 9.07046 23.6654 9.50001C23.6654 9.92957 23.3171 10.2778 22.8876 10.2778ZM1.10981 18.0556H22.8876C23.3171 18.0556 23.6654 17.7073 23.6654 17.2778C23.6654 16.8482 23.3171 16.5 22.8876 16.5H1.10981C0.680254 16.5 0.332031 16.8482 0.332031 17.2778C0.332031 17.7073 0.680254 18.0556 1.10981 18.0556Z" fill="white" fill-opacity="0.85"/>
</svg>
