<svg width="26" height="25" viewBox="0 0 26 25" fill="none" xmlns="http://www.w3.org/2000/svg">
<path fill-rule="evenodd" clip-rule="evenodd" d="M12.9991 0.444458C6.13913 0.444458 0.554688 5.3289 0.554688 11.3333C0.554688 17.3378 6.13913 22.2222 12.9991 22.2222C14.2826 22.2208 15.5597 22.0428 16.7947 21.6933L21.0958 24.4311C21.335 24.5846 21.6388 24.5954 21.8882 24.4593C22.1377 24.3232 22.2931 24.062 22.2936 23.7778V18.5433C24.2596 16.6573 25.3814 14.0577 25.4047 11.3333C25.4436 5.3289 19.8591 0.444458 12.9991 0.444458ZM18.2258 8.22224C18.6554 8.22224 19.0036 7.87401 19.0036 7.44446C19.0036 7.0149 18.6554 6.66668 18.2258 6.66668H7.77246C7.34291 6.66668 6.99469 7.0149 6.99469 7.44446C6.99469 7.87401 7.34291 8.22224 7.77246 8.22224H18.2258ZM10.0825 14.4445C9.65291 14.4445 9.30469 14.7927 9.30469 15.2222C9.30469 15.6518 9.65291 16 10.0825 16H15.9158C16.3454 16 16.6936 15.6518 16.6936 15.2222C16.6936 14.7927 16.3454 14.4445 15.9158 14.4445H10.0825ZM7.55469 10.5556H18.4436C18.8731 10.5556 19.2214 10.9038 19.2214 11.3333C19.2214 11.7629 18.8731 12.1111 18.4436 12.1111H7.55469C7.12513 12.1111 6.77691 11.7629 6.77691 11.3333C6.77691 10.9038 7.12513 10.5556 7.55469 10.5556ZM20.7536 18.2089C20.7543 17.9933 20.8444 17.7877 21.0025 17.6411C22.8054 16.0355 23.8522 13.7473 23.888 11.3333C23.888 6.18446 19.0036 2.00001 12.9991 2.00001C6.99469 2.00001 2.11024 6.18446 2.11024 11.3333C2.11024 16.4822 6.99469 20.6667 12.9991 20.6667C14.2544 20.6678 15.5026 20.479 16.7014 20.1067C16.9187 20.0394 17.1546 20.0707 17.3469 20.1922L20.7536 22.3622V18.2089Z" fill="white" fill-opacity="0.85"/>
</svg>
