<svg width="28" height="29" viewBox="0 0 28 29" fill="none" xmlns="http://www.w3.org/2000/svg">
<path fill-rule="evenodd" clip-rule="evenodd" d="M1.55469 13.3333C1.55469 7.3289 7.13913 2.44446 13.9991 2.44446C20.8591 2.44446 26.4436 7.3289 26.4047 13.3333C26.3814 16.0577 25.2596 18.6573 23.2936 20.5433V25.7778C23.2931 26.062 23.1377 26.3232 22.8882 26.4593C22.6388 26.5954 22.335 26.5846 22.0958 26.4311L17.7947 23.6933C16.5597 24.0428 15.2826 24.2208 13.9991 24.2222C7.13913 24.2222 1.55469 19.3378 1.55469 13.3333ZM19.4436 14.1111C19.8731 14.1111 20.2214 13.7629 20.2214 13.3333C20.2214 12.9038 19.8731 12.5556 19.4436 12.5556H8.55469C8.12513 12.5556 7.77691 12.9038 7.77691 13.3333C7.77691 13.7629 8.12513 14.1111 8.55469 14.1111H19.4436ZM17.6936 17.2222C17.6936 17.6518 17.3454 18 16.9158 18H11.0825C10.6529 18 10.3047 17.6518 10.3047 17.2222C10.3047 16.7927 10.6529 16.4445 11.0825 16.4445H16.9158C17.3454 16.4445 17.6936 16.7927 17.6936 17.2222ZM8.77246 8.66668C8.34291 8.66668 7.99469 9.0149 7.99469 9.44446C7.99469 9.87401 8.34291 10.2222 8.77246 10.2222H19.2258C19.6554 10.2222 20.0036 9.87401 20.0036 9.44446C20.0036 9.0149 19.6554 8.66668 19.2258 8.66668H8.77246Z" fill="white"/>
</svg>
