<svg width="16" height="15" viewBox="0 0 16 15" fill="none" xmlns="http://www.w3.org/2000/svg">
<path d="M14.6666 6.94444H8.55549V0.833333C8.55549 0.526508 8.30676 0.277778 7.99993 0.277778C7.69311 0.277778 7.44438 0.526508 7.44438 0.833333V6.94444H1.33326C1.02644 6.94444 0.777708 7.19317 0.777708 7.5C0.772162 7.64608 0.830122 7.78742 0.93664 7.88754C1.04316 7.98767 1.1878 8.03679 1.33326 8.02222H7.44438V14.1667C7.44438 14.4735 7.69311 14.7222 7.99993 14.7222C8.30676 14.7222 8.55549 14.4735 8.55549 14.1667V8.05555H14.6666C14.9734 8.05555 15.2222 7.80682 15.2222 7.5C15.2222 7.19317 14.9734 6.94444 14.6666 6.94444Z" fill="#262626"/>
</svg>
