<svg width="28" height="29" viewBox="0 0 28 29" fill="none" xmlns="http://www.w3.org/2000/svg">
<path fill-rule="evenodd" clip-rule="evenodd" d="M10.5557 2.83334C9.45109 2.83334 8.55566 3.72878 8.55566 4.83335V8.61112C8.55566 9.71569 9.45109 10.6111 10.5557 10.6111H17.4446C18.5491 10.6111 19.4446 9.71569 19.4446 8.61112V4.83334C19.4446 3.72877 18.5491 2.83334 17.4446 2.83334H10.5557ZM17.5557 18.3889C16.4511 18.3889 15.5557 19.2843 15.5557 20.3889V24.1667C15.5557 25.2712 16.4511 26.1667 17.5557 26.1667H24.4446C25.5491 26.1667 26.4446 25.2712 26.4446 24.1667V20.3889C26.4446 19.2843 25.5491 18.3889 24.4446 18.3889H17.5557ZM1.55566 20.3889C1.55566 19.2843 2.45109 18.3889 3.55566 18.3889H10.4446C11.5491 18.3889 12.4446 19.2843 12.4446 20.3889V24.1667C12.4446 25.2712 11.5491 26.1667 10.4446 26.1667H3.55566C2.45109 26.1667 1.55566 25.2712 1.55566 24.1667V20.3889ZM20.3779 15.1222H7.62233V17.5178H6.37789V13.8778H13.3779V11.3889H14.6223V13.8778H21.6223V17.5178H20.3779V15.1222Z" fill="white"/>
</svg>
