<svg width="28" height="29" viewBox="0 0 28 29" fill="none" xmlns="http://www.w3.org/2000/svg">
<path fill-rule="evenodd" clip-rule="evenodd" d="M9.1111 8.61112H16.8889C17.748 8.61112 18.4444 7.91468 18.4444 7.05557V2.3889C18.4444 1.52979 17.748 0.833344 16.8889 0.833344H9.1111C8.25199 0.833344 7.55554 1.52979 7.55554 2.3889V7.05557C7.55554 7.91468 8.25199 8.61112 9.1111 8.61112ZM9.1111 2.3889H16.8889V7.05557H9.1111V2.3889ZM16.1111 16.3889H23.8889C24.748 16.3889 25.4444 17.0853 25.4444 17.9445V22.6111C25.4444 23.4702 24.748 24.1667 23.8889 24.1667H16.1111C15.252 24.1667 14.5555 23.4702 14.5555 22.6111V17.9445C14.5555 17.0853 15.252 16.3889 16.1111 16.3889ZM16.1111 22.6111V17.9445H23.8889V22.6111H16.1111ZM2.1111 16.3889H9.88888C10.748 16.3889 11.4444 17.0853 11.4444 17.9445V22.6111C11.4444 23.4702 10.748 24.1667 9.88888 24.1667H2.1111C1.25199 24.1667 0.555542 23.4702 0.555542 22.6111V17.9445C0.555542 17.0853 1.25199 16.3889 2.1111 16.3889ZM2.1111 22.6111V17.9445H9.88888V22.6111H2.1111ZM19.3778 13.1222H6.62221V15.5178H5.37776V11.8778H12.3778V9.3889H13.6222V11.8778H20.6222V15.5178H19.3778V13.1222Z" fill="white" fill-opacity="0.85"/>
</svg>
