<svg width="28" height="29" viewBox="0 0 28 29" fill="none" xmlns="http://www.w3.org/2000/svg">
<path d="M24.0833 3.16665H21.5556V4.72221H23.8889V21.8333H2.11111V4.72221H4.44445V3.16665H1.91667C1.73485 3.16969 1.55542 3.20852 1.38861 3.28091C1.2218 3.35331 1.07089 3.45786 0.944496 3.58859C0.8181 3.71932 0.718696 3.87367 0.651961 4.04282C0.585226 4.21197 0.552469 4.39262 0.555559 4.57443V21.9811C0.552469 22.1629 0.585226 22.3436 0.651961 22.5127C0.718696 22.6819 0.8181 22.8362 0.944496 22.9669C1.07089 23.0977 1.2218 23.2022 1.38861 23.2746C1.55542 23.347 1.73485 23.3858 1.91667 23.3889H24.0833C24.2652 23.3858 24.4446 23.347 24.6114 23.2746C24.7782 23.2022 24.9291 23.0977 25.0555 22.9669C25.1819 22.8362 25.2813 22.6819 25.348 22.5127C25.4148 22.3436 25.4475 22.1629 25.4444 21.9811V4.57443C25.4475 4.39262 25.4148 4.21197 25.348 4.04282C25.2813 3.87367 25.1819 3.71932 25.0555 3.58859C24.9291 3.45786 24.7782 3.35331 24.6114 3.28091C24.4446 3.20852 24.2652 3.16969 24.0833 3.16665Z" fill="white" fill-opacity="0.85"/>
<path d="M6.77777 9.38888H5.22222V10.9444H6.77777V9.38888Z" fill="white" fill-opacity="0.85"/>
<path d="M11.4444 9.38888H9.88888V10.9444H11.4444V9.38888Z" fill="white" fill-opacity="0.85"/>
<path d="M16.1111 9.38888H14.5555V10.9444H16.1111V9.38888Z" fill="white" fill-opacity="0.85"/>
<path d="M20.7778 9.38888H19.2222V10.9444H20.7778V9.38888Z" fill="white" fill-opacity="0.85"/>
<path d="M6.77777 13.2778H5.22222V14.8333H6.77777V13.2778Z" fill="white" fill-opacity="0.85"/>
<path d="M11.4444 13.2778H9.88888V14.8333H11.4444V13.2778Z" fill="white" fill-opacity="0.85"/>
<path d="M16.1111 13.2778H14.5555V14.8333H16.1111V13.2778Z" fill="white" fill-opacity="0.85"/>
<path d="M20.7778 13.2778H19.2222V14.8333H20.7778V13.2778Z" fill="white" fill-opacity="0.85"/>
<path d="M6.77777 17.1667H5.22222V18.7222H6.77777V17.1667Z" fill="white" fill-opacity="0.85"/>
<path d="M11.4444 17.1667H9.88888V18.7222H11.4444V17.1667Z" fill="white" fill-opacity="0.85"/>
<path d="M16.1111 17.1667H14.5555V18.7222H16.1111V17.1667Z" fill="white" fill-opacity="0.85"/>
<path d="M20.7778 17.1667H19.2222V18.7222H20.7778V17.1667Z" fill="white" fill-opacity="0.85"/>
<path d="M6.77777 6.27776C6.98405 6.27776 7.18188 6.19582 7.32774 6.04996C7.4736 5.9041 7.55555 5.70627 7.55555 5.49999V0.83332C7.55555 0.62704 7.4736 0.429209 7.32774 0.283348C7.18188 0.137486 6.98405 0.055542 6.77777 0.055542C6.57149 0.055542 6.37366 0.137486 6.2278 0.283348C6.08194 0.429209 5.99999 0.62704 5.99999 0.83332V5.49999C5.99999 5.70627 6.08194 5.9041 6.2278 6.04996C6.37366 6.19582 6.57149 6.27776 6.77777 6.27776Z" fill="white" fill-opacity="0.85"/>
<path d="M19.2222 6.27776C19.4285 6.27776 19.6263 6.19582 19.7722 6.04996C19.918 5.9041 20 5.70627 20 5.49999V0.83332C20 0.62704 19.918 0.429209 19.7722 0.283348C19.6263 0.137486 19.4285 0.055542 19.2222 0.055542C19.0159 0.055542 18.8181 0.137486 18.6722 0.283348C18.5264 0.429209 18.4444 0.62704 18.4444 0.83332V5.49999C18.4444 5.70627 18.5264 5.9041 18.6722 6.04996C18.8181 6.19582 19.0159 6.27776 19.2222 6.27776Z" fill="white" fill-opacity="0.85"/>
<path d="M16.8889 3.16665H9.1111V4.72221H16.8889V3.16665Z" fill="white" fill-opacity="0.85"/>
</svg>
