<svg width="28" height="29" viewBox="0 0 28 29" fill="none" xmlns="http://www.w3.org/2000/svg">
<path d="M25.0833 5.16665H22.5556V6.72221H24.8889V23.8333H3.11111V6.72221H5.44445V5.16665H2.91667C2.73485 5.16969 2.55542 5.20852 2.38861 5.28091C2.2218 5.35331 2.07089 5.45786 1.9445 5.58859C1.8181 5.71932 1.7187 5.87367 1.65196 6.04282C1.58523 6.21197 1.55247 6.39262 1.55556 6.57443V23.9811C1.55247 24.1629 1.58523 24.3436 1.65196 24.5127C1.7187 24.6819 1.8181 24.8362 1.9445 24.9669C2.07089 25.0977 2.2218 25.2022 2.38861 25.2746C2.55542 25.347 2.73485 25.3858 2.91667 25.3889H25.0833C25.2652 25.3858 25.4446 25.347 25.6114 25.2746C25.7782 25.2022 25.9291 25.0977 26.0555 24.9669C26.1819 24.8362 26.2813 24.6819 26.348 24.5127C26.4148 24.3436 26.4475 24.1629 26.4444 23.9811V6.57443C26.4475 6.39262 26.4148 6.21197 26.348 6.04282C26.2813 5.87367 26.1819 5.71932 26.0555 5.58859C25.9291 5.45786 25.7782 5.35331 25.6114 5.28091C25.4446 5.20852 25.2652 5.16969 25.0833 5.16665Z" fill="white" fill-opacity="0.85"/>
<path d="M7.77777 11.3889H6.22222V12.9444H7.77777V11.3889Z" fill="white" fill-opacity="0.85"/>
<path d="M12.4444 11.3889H10.8889V12.9444H12.4444V11.3889Z" fill="white" fill-opacity="0.85"/>
<path d="M17.1111 11.3889H15.5555V12.9444H17.1111V11.3889Z" fill="white" fill-opacity="0.85"/>
<path d="M21.7778 11.3889H20.2222V12.9444H21.7778V11.3889Z" fill="white" fill-opacity="0.85"/>
<path d="M7.77777 15.2778H6.22222V16.8333H7.77777V15.2778Z" fill="white" fill-opacity="0.85"/>
<path d="M12.4444 15.2778H10.8889V16.8333H12.4444V15.2778Z" fill="white" fill-opacity="0.85"/>
<path d="M17.1111 15.2778H15.5555V16.8333H17.1111V15.2778Z" fill="white" fill-opacity="0.85"/>
<path d="M21.7778 15.2778H20.2222V16.8333H21.7778V15.2778Z" fill="white" fill-opacity="0.85"/>
<path d="M7.77777 19.1667H6.22222V20.7222H7.77777V19.1667Z" fill="white" fill-opacity="0.85"/>
<path d="M12.4444 19.1667H10.8889V20.7222H12.4444V19.1667Z" fill="white" fill-opacity="0.85"/>
<path d="M17.1111 19.1667H15.5555V20.7222H17.1111V19.1667Z" fill="white" fill-opacity="0.85"/>
<path d="M21.7778 19.1667H20.2222V20.7222H21.7778V19.1667Z" fill="white" fill-opacity="0.85"/>
<path d="M7.77777 8.27776C7.98405 8.27776 8.18188 8.19582 8.32774 8.04996C8.4736 7.9041 8.55555 7.70627 8.55555 7.49999V2.83332C8.55555 2.62704 8.4736 2.42921 8.32774 2.28335C8.18188 2.13749 7.98405 2.05554 7.77777 2.05554C7.57149 2.05554 7.37366 2.13749 7.2278 2.28335C7.08194 2.42921 6.99999 2.62704 6.99999 2.83332V7.49999C6.99999 7.70627 7.08194 7.9041 7.2278 8.04996C7.37366 8.19582 7.57149 8.27776 7.77777 8.27776Z" fill="white" fill-opacity="0.85"/>
<path d="M20.2222 8.27776C20.4285 8.27776 20.6263 8.19582 20.7722 8.04996C20.9181 7.9041 21 7.70627 21 7.49999V2.83332C21 2.62704 20.9181 2.42921 20.7722 2.28335C20.6263 2.13749 20.4285 2.05554 20.2222 2.05554C20.0159 2.05554 19.8181 2.13749 19.6722 2.28335C19.5264 2.42921 19.4444 2.62704 19.4444 2.83332V7.49999C19.4444 7.70627 19.5264 7.9041 19.6722 8.04996C19.8181 8.19582 20.0159 8.27776 20.2222 8.27776Z" fill="white" fill-opacity="0.85"/>
<path d="M17.8889 5.16665H10.1111V6.72221H17.8889V5.16665Z" fill="white" fill-opacity="0.85"/>
</svg>
