<svg width="26" height="24" viewBox="0 0 26 24" fill="none" xmlns="http://www.w3.org/2000/svg">
<path d="M24.0836 3.16665H20.9725V5.49999C20.9725 5.72469 20.9283 5.9472 20.8423 6.1548C20.7563 6.3624 20.6302 6.55103 20.4714 6.70993C20.3125 6.86882 20.1238 6.99486 19.9162 7.08085C19.7086 7.16684 19.4861 7.2111 19.2614 7.2111C19.0367 7.2111 18.8142 7.16684 18.6066 7.08085C18.399 6.99486 18.2104 6.86882 18.0515 6.70993C17.8926 6.55103 17.7666 6.3624 17.6806 6.1548C17.5946 5.9472 17.5503 5.72469 17.5503 5.49999V3.16665H8.4892V5.49999C8.4892 5.9538 8.30892 6.38903 7.98802 6.70992C7.66713 7.03082 7.2319 7.2111 6.77809 7.2111C6.32427 7.2111 5.88904 7.03082 5.56815 6.70992C5.24725 6.38903 5.06698 5.9538 5.06698 5.49999V3.16665H1.95586C1.77077 3.16455 1.58714 3.19958 1.41582 3.26968C1.2445 3.33978 1.08898 3.44352 0.958452 3.57477C0.827926 3.70602 0.725046 3.86212 0.655897 4.03382C0.586747 4.20553 0.552732 4.38935 0.555864 4.57443V21.9811C0.552774 22.1629 0.585532 22.3436 0.652266 22.5127C0.719001 22.6819 0.818405 22.8362 0.944801 22.9669C1.0712 23.0977 1.22211 23.2022 1.38892 23.2746C1.55572 23.347 1.73516 23.3858 1.91698 23.3889H24.0836C24.2655 23.3858 24.4449 23.347 24.6117 23.2746C24.7785 23.2022 24.9294 23.0977 25.0558 22.9669C25.1822 22.8362 25.2816 22.6819 25.3484 22.5127C25.4151 22.3436 25.4478 22.1629 25.4448 21.9811V4.57443C25.4478 4.39262 25.4151 4.21197 25.3484 4.04282C25.2816 3.87367 25.1822 3.71932 25.0558 3.58859C24.9294 3.45786 24.7785 3.35331 24.6117 3.28091C24.4449 3.20852 24.2655 3.16969 24.0836 3.16665ZM6.77809 18.7222H5.22253V17.1667H6.77809V18.7222ZM6.77809 14.8333H5.22253V13.2778H6.77809V14.8333ZM6.77809 10.9444H5.22253V9.38888H6.77809V10.9444ZM11.4448 18.7222H9.8892V17.1667H11.4448V18.7222ZM11.4448 14.8333H9.8892V13.2778H11.4448V14.8333ZM11.4448 10.9444H9.8892V9.38888H11.4448V10.9444ZM16.1114 18.7222H14.5559V17.1667H16.1114V18.7222ZM16.1114 14.8333H14.5559V13.2778H16.1114V14.8333ZM16.1114 10.9444H14.5559V9.38888H16.1114V10.9444ZM20.7781 18.7222H19.2225V17.1667H20.7781V18.7222ZM20.7781 14.8333H19.2225V13.2778H20.7781V14.8333ZM20.7781 10.9444H19.2225V9.38888H20.7781V10.9444Z" fill="white"/>
<path d="M6.77809 6.27776C6.98437 6.27776 7.1822 6.19582 7.32806 6.04996C7.47392 5.9041 7.55586 5.70627 7.55586 5.49999V0.83332C7.55586 0.62704 7.47392 0.429209 7.32806 0.283348C7.1822 0.137486 6.98437 0.055542 6.77809 0.055542C6.57181 0.055542 6.37398 0.137486 6.22811 0.283348C6.08225 0.429209 6.00031 0.62704 6.00031 0.83332V5.49999C6.00031 5.70627 6.08225 5.9041 6.22811 6.04996C6.37398 6.19582 6.57181 6.27776 6.77809 6.27776Z" fill="white"/>
<path d="M19.2225 6.27776C19.4288 6.27776 19.6266 6.19582 19.7725 6.04996C19.9184 5.9041 20.0003 5.70627 20.0003 5.49999V0.83332C20.0003 0.62704 19.9184 0.429209 19.7725 0.283348C19.6266 0.137486 19.4288 0.055542 19.2225 0.055542C19.0163 0.055542 18.8184 0.137486 18.6726 0.283348C18.5267 0.429209 18.4448 0.62704 18.4448 0.83332V5.49999C18.4448 5.70627 18.5267 5.9041 18.6726 6.04996C18.8184 6.19582 19.0163 6.27776 19.2225 6.27776Z" fill="white"/>
</svg>
