<svg width="28" height="29" viewBox="0 0 28 29" fill="none" xmlns="http://www.w3.org/2000/svg">
<path fill-rule="evenodd" clip-rule="evenodd" d="M22.1078 1.47445L25.2811 7.82111C25.3895 8.0385 25.4454 8.27823 25.4444 8.52111V10.9244C25.443 11.2889 25.3136 11.6412 25.0789 11.92C23.7703 13.3989 21.5262 13.5776 20 12.3244C18.6435 13.4373 16.6899 13.4373 15.3333 12.3244C13.9768 13.4373 12.0232 13.4373 10.6667 12.3244C9.31014 13.4373 7.35652 13.4373 6 12.3244C5.34214 12.8638 4.51738 13.158 3.66667 13.1567C2.61172 13.1614 1.60684 12.7072 0.913332 11.9122C0.681428 11.6324 0.554844 11.2801 0.555554 10.9167V8.52111C0.554602 8.27823 0.61054 8.0385 0.718887 7.82111L3.89222 1.47445C4.1549 0.945825 4.69415 0.611428 5.28444 0.611115H20.7156C21.3058 0.611428 21.8451 0.945825 22.1078 1.47445ZM10.6667 9.88223V8.7L11.4444 2.16667H8.01444L6 8.7V9.85111L6.63 10.7222C7.02707 11.2634 7.65819 11.5832 8.32944 11.5832C9.0007 11.5832 9.63181 11.2634 10.0289 10.7222L10.6667 9.88223ZM20 9.85111L19.37 10.7222C18.9729 11.2634 18.3418 11.5832 17.6706 11.5832C16.9993 11.5832 16.3682 11.2634 15.9711 10.7222L15.3333 9.85111V8.7L14.5556 2.16667H18.0167L20 8.7V9.85111ZM11.4444 20.8333H20.7778V14.6111H22.3333V20.8333C22.3333 21.6924 21.6369 22.3889 20.7778 22.3889H5.22222C4.36311 22.3889 3.66666 21.6924 3.66666 20.8333V14.6111H5.22222V20.8333H9.88889V14.6111H11.4444V20.8333Z" fill="white"/>
</svg>
