<svg width="28" height="29" viewBox="0 0 28 29" fill="none" xmlns="http://www.w3.org/2000/svg">
<path fill-rule="evenodd" clip-rule="evenodd" d="M26.2812 10.8211L23.1079 4.47445C22.8452 3.94583 22.306 3.61143 21.7157 3.61111H6.28456C5.69427 3.61143 5.15502 3.94583 4.89234 4.47445L1.71901 10.8211C1.61066 11.0385 1.55472 11.2782 1.55568 11.5211V13.9167C1.55497 14.2801 1.68155 14.6324 1.91345 14.9122C2.60696 15.7072 3.61184 16.1614 4.66679 16.1567C5.5175 16.158 6.34226 15.8638 7.00012 15.3244C8.35664 16.4373 10.3103 16.4373 11.6668 15.3244C13.0233 16.4373 14.9769 16.4373 16.3335 15.3244C17.69 16.4373 19.6436 16.4373 21.0001 15.3244C22.5263 16.5776 24.7704 16.3989 26.079 14.92C26.3137 14.6412 26.4431 14.2889 26.4446 13.9244V11.5211C26.4455 11.2782 26.3896 11.0385 26.2812 10.8211ZM23.3335 14.6011C22.6594 14.5995 22.0277 14.2721 21.6379 13.7222L21.0001 12.8511L20.3701 13.7222C19.973 14.2634 19.3419 14.5832 18.6707 14.5832C17.9994 14.5832 17.3683 14.2634 16.9712 13.7222L16.3335 12.8511L15.7035 13.7222C15.3064 14.2634 14.6753 14.5832 14.004 14.5832C13.3328 14.5832 12.7016 14.2634 12.3046 13.7222L11.6668 12.8511L11.0368 13.7222C10.6397 14.2634 10.0086 14.5832 9.33734 14.5832C8.66609 14.5832 8.03497 14.2634 7.6379 13.7222L7.00012 12.8511L6.36234 13.7222C5.9725 14.2721 5.34083 14.5995 4.66679 14.6011C4.07376 14.6083 3.50657 14.3588 3.11123 13.9167V11.5211L6.28456 5.16667H21.7157L24.889 11.5133V12.0344V13.8933C24.4961 14.3416 23.9295 14.5994 23.3335 14.6011ZM12.4446 23.8333H21.7779V17.6111H23.3335V23.8333C23.3335 24.6924 22.637 25.3889 21.7779 25.3889H6.22234C5.36323 25.3889 4.66679 24.6924 4.66679 23.8333V17.6111H6.22234V23.8333H10.889V17.6111H12.4446V23.8333Z" fill="white" fill-opacity="0.85"/>
</svg>
