<svg width="28" height="29" viewBox="0 0 28 29" fill="none" xmlns="http://www.w3.org/2000/svg">
<path fill-rule="evenodd" clip-rule="evenodd" d="M23.1078 4.47445L26.2811 10.8211C26.3895 11.0385 26.4454 11.2782 26.4444 11.5211V13.9244C26.443 14.2889 26.3136 14.6412 26.0789 14.92C24.7703 16.3989 22.5262 16.5776 21 15.3244C19.6435 16.4373 17.6899 16.4373 16.3333 15.3244C14.9768 16.4373 13.0232 16.4373 11.6667 15.3244C10.3101 16.4373 8.35652 16.4373 7 15.3244C6.34214 15.8638 5.51738 16.158 4.66667 16.1567C3.61172 16.1614 2.60684 15.7072 1.91333 14.9122C1.68143 14.6324 1.55484 14.2801 1.55555 13.9167V11.5211C1.5546 11.2782 1.61054 11.0385 1.71889 10.8211L4.89222 4.47445C5.1549 3.94583 5.69415 3.61143 6.28444 3.61111H21.7156C22.3058 3.61143 22.8451 3.94583 23.1078 4.47445ZM11.6667 12.8822V11.7L12.4444 5.16667H9.01444L7 11.7V12.8511L7.63 13.7222C8.02707 14.2634 8.65819 14.5832 9.32944 14.5832C10.0007 14.5832 10.6318 14.2634 11.0289 13.7222L11.6667 12.8822ZM21 12.8511L20.37 13.7222C19.9729 14.2634 19.3418 14.5832 18.6706 14.5832C17.9993 14.5832 17.3682 14.2634 16.9711 13.7222L16.3333 12.8511V11.7L15.5556 5.16667H19.0167L21 11.7V12.8511ZM12.4444 23.8333H21.7778V17.6111H23.3333V23.8333C23.3333 24.6924 22.6369 25.3889 21.7778 25.3889H6.22222C5.36311 25.3889 4.66666 24.6924 4.66666 23.8333V17.6111H6.22222V23.8333H10.8889V17.6111H12.4444V23.8333Z" fill="white"/>
</svg>
