<svg width="20" height="21" viewBox="0 0 20 21" fill="none" xmlns="http://www.w3.org/2000/svg">
<path fill-rule="evenodd" clip-rule="evenodd" d="M1.11133 10.8335C1.11133 5.92427 5.09102 1.94458 10.0002 1.94458C12.3577 1.94458 14.6186 2.88109 16.2856 4.54808C17.9526 6.21507 18.8891 8.47599 18.8891 10.8335C18.8891 15.7427 14.9094 19.7224 10.0002 19.7224C5.09102 19.7224 1.11133 15.7427 1.11133 10.8335ZM14.4447 15.3335C14.7515 15.0266 14.7515 14.5292 14.4447 14.2224L11.1113 10.8779L14.5391 7.46125C14.7376 7.26277 14.8151 6.97347 14.7425 6.70234C14.6698 6.43121 14.458 6.21944 14.1869 6.14679C13.9158 6.07414 13.6265 6.15165 13.428 6.35014L10.0002 9.77791L6.57244 6.31125C6.37396 6.11277 6.08467 6.03525 5.81354 6.1079C5.54241 6.18055 5.33063 6.39232 5.25798 6.66345C5.18533 6.93458 5.26285 7.22388 5.46133 7.42236L8.88911 10.8779L5.55577 14.2335C5.35729 14.4319 5.27978 14.7212 5.35243 14.9924C5.42507 15.2635 5.63685 15.4753 5.90798 15.5479C6.17911 15.6206 6.4684 15.5431 6.66688 15.3446L10.0002 12.0001L13.3336 15.3335C13.6404 15.6403 14.1378 15.6403 14.4447 15.3335Z" fill="#D64F52"/>
</svg>
