<svg width="25" height="25" viewBox="0 0 25 25" fill="none" xmlns="http://www.w3.org/2000/svg">
<circle cx="12.5" cy="12.5" r="12" stroke="white"/>
<path fill-rule="evenodd" clip-rule="evenodd" d="M15.6525 6.55555C16.4763 7.13353 17.0203 8.03016 17.1525 9.02777C17.2775 10.0069 17.09 12.3542 12.8955 13.3125V15.1806C12.8955 15.5641 12.5846 15.875 12.2011 15.875C11.8175 15.875 11.5066 15.5641 11.5066 15.1806V12.1528L12.0761 12.0486C13.5552 11.7778 15.9997 11.0417 15.7705 9.17361C15.6837 8.55813 15.3439 8.00684 14.833 7.65277C13.9832 7.08764 12.9367 6.90147 11.9441 7.13888C10.9515 7.31837 10.0145 7.7274 9.20802 8.33333C8.90887 8.57495 8.47048 8.52832 8.22886 8.22916C7.98723 7.93001 8.03387 7.49162 8.33302 7.24999C9.32179 6.50986 10.4708 6.01268 11.6872 5.79861C13.0567 5.48764 14.4938 5.76198 15.6525 6.55555ZM13.1802 18.2153C13.1802 18.7522 12.745 19.1875 12.208 19.1875C11.6711 19.1875 11.2358 18.7522 11.2358 18.2153C11.2358 17.6783 11.6711 17.243 12.208 17.243C12.745 17.243 13.1802 17.6783 13.1802 18.2153Z" fill="white"/>
</svg>
